<svg xmlns="http://www.w3.org/2000/svg" width="375" viewBox="0 0 375 375" height="375" version="1.0"><g fill="#3A1153"><g><g><path d="M 95.546875 -323.5 L 101.5 -323.5 C 148.050781 -323.5 184.3125 -297.019531 210.28125 -244.0625 C 223.84375 -206.457031 230.625 -175.757812 230.625 -151.96875 C 230.625 -131.113281 224.867188 -108.597656 213.359375 -84.421875 C 195.578125 -56.921875 170.890625 -37.03125 139.296875 -24.75 C 99.898438 -9.914062 68.175781 -2.5 44.125 -2.5 C 41.1875 -2.5 36.132812 -3.265625 28.96875 -4.796875 L 26.09375 -3.265625 C 17.132812 -3.265625 11.566406 -54.941406 9.390625 -158.296875 C 11.566406 -259.472656 15.085938 -310.0625 19.953125 -310.0625 C 22.378906 -313.257812 26.921875 -315.625 33.578125 -317.15625 C 38.691406 -315.5 42.207031 -314.160156 44.125 -313.140625 C 64.082031 -320.046875 81.222656 -323.5 95.546875 -323.5 Z M 49.5 -278.21875 C 47.445312 -135.207031 43.863281 -55.453125 38.75 -38.953125 C 36.832031 -26.796875 34.335938 -16.5 31.265625 -8.0625 L 32.03125 -8.0625 C 53.65625 -8.0625 90.941406 -20.53125 143.890625 -45.46875 C 169.347656 -60.3125 187.453125 -79.375 198.203125 -102.65625 C 203.703125 -119.664062 206.453125 -135.78125 206.453125 -151 C 206.453125 -168.78125 199.414062 -195.578125 185.34375 -231.390625 C 165.132812 -270.535156 137.441406 -290.109375 102.265625 -290.109375 C 90.878906 -290.109375 73.289062 -286.144531 49.5 -278.21875 Z M 49.5 -278.21875" transform="translate(118.22 359.559)"/></g></g></g><path fill="#FF3D54" d="M 45.144531 151.421875 L 212.070312 247.796875 L 45.144531 344.175781 Z M 45.144531 151.421875"/></svg>