<svg xmlns="http://www.w3.org/2000/svg" width="187.5" viewBox="0 0 187.5 112.5" height="112.5" version="1.0"><path fill="#FF3D54" d="M 45.8125 46.523438 L 62.496094 56.152344 L 45.8125 65.785156 Z M 45.8125 46.523438"/><g fill="#3A1153"><g><g><path d="M 8.484375 -28.765625 L 9.015625 -28.765625 C 13.160156 -28.765625 16.382812 -26.410156 18.6875 -21.703125 C 19.894531 -18.359375 20.5 -15.628906 20.5 -13.515625 C 20.5 -11.660156 19.988281 -9.65625 18.96875 -7.5 C 17.382812 -5.0625 15.1875 -3.296875 12.375 -2.203125 C 8.875 -0.878906 6.054688 -0.21875 3.921875 -0.21875 C 3.660156 -0.21875 3.207031 -0.285156 2.5625 -0.421875 L 2.3125 -0.296875 C 1.519531 -0.296875 1.023438 -4.890625 0.828125 -14.078125 C 1.023438 -23.066406 1.335938 -27.5625 1.765625 -27.5625 C 1.984375 -27.851562 2.390625 -28.066406 2.984375 -28.203125 C 3.429688 -28.054688 3.742188 -27.9375 3.921875 -27.84375 C 5.691406 -28.457031 7.210938 -28.765625 8.484375 -28.765625 Z M 4.390625 -24.734375 C 4.210938 -12.015625 3.894531 -4.925781 3.4375 -3.46875 C 3.269531 -2.382812 3.050781 -1.46875 2.78125 -0.71875 L 2.84375 -0.71875 C 4.757812 -0.71875 8.070312 -1.828125 12.78125 -4.046875 C 15.050781 -5.359375 16.660156 -7.050781 17.609375 -9.125 C 18.097656 -10.632812 18.34375 -12.066406 18.34375 -13.421875 C 18.34375 -15.003906 17.71875 -17.390625 16.46875 -20.578125 C 14.675781 -24.054688 12.21875 -25.796875 9.09375 -25.796875 C 8.070312 -25.796875 6.503906 -25.441406 4.390625 -24.734375 Z M 4.390625 -24.734375" transform="translate(52.662 67.006)"/></g></g></g><g fill="#3A1153"><g><g><path d="M 7.234375 -18.796875 L 8.046875 -18.796875 C 10.859375 -18.796875 12.796875 -16.128906 13.859375 -10.796875 C 14.035156 -9.742188 14.125 -8.734375 14.125 -7.765625 C 14.125 -4.253906 12.78125 -1.925781 10.09375 -0.78125 C 9.15625 -0.4375 8.15625 -0.265625 7.09375 -0.265625 L 6.078125 -0.265625 C 3.546875 -0.265625 1.835938 -1.351562 0.953125 -3.53125 C 0.816406 -4.039062 0.75 -4.554688 0.75 -5.078125 C 0.75 -7.648438 1.863281 -9.378906 4.09375 -10.265625 C 5 -10.515625 5.703125 -10.640625 6.203125 -10.640625 L 7.296875 -10.640625 C 8.460938 -10.640625 9.554688 -10.296875 10.578125 -9.609375 L 10.640625 -9.609375 L 10.640625 -9.6875 C 9.867188 -13.289062 8.734375 -15.09375 7.234375 -15.09375 L 6.828125 -15.09375 C 5.710938 -15.09375 4.503906 -14.472656 3.203125 -13.234375 L 2.859375 -13.234375 C 2.585938 -13.441406 2.453125 -13.691406 2.453125 -13.984375 L 2.453125 -14.5 C 2.453125 -16.019531 3.5 -17.328125 5.59375 -18.421875 C 6.269531 -18.671875 6.816406 -18.796875 7.234375 -18.796875 Z M 2.859375 -5.3125 C 2.859375 -3.832031 3.816406 -3.09375 5.734375 -3.09375 L 6 -3.09375 C 8.769531 -3.09375 10.363281 -4.003906 10.78125 -5.828125 C 10.875 -6.140625 10.921875 -6.609375 10.921875 -7.234375 C 10.921875 -8.328125 10.785156 -8.875 10.515625 -8.875 C 9.742188 -9.164062 8.921875 -9.3125 8.046875 -9.3125 C 5.566406 -9.3125 3.910156 -8.519531 3.078125 -6.9375 C 2.929688 -6.40625 2.859375 -5.863281 2.859375 -5.3125 Z M 2.859375 -5.3125" transform="translate(73.828 67.006)"/></g></g></g><g fill="#3A1153"><g><g><path d="M 3.546875 -18.75 L 3.9375 -18.75 C 4.675781 -18.75 5.175781 -17.90625 5.4375 -16.21875 C 5.894531 -16.382812 6.34375 -16.46875 6.78125 -16.46875 C 9.738281 -16.46875 11.765625 -14.863281 12.859375 -11.65625 C 13.128906 -10.414062 13.265625 -9.332031 13.265625 -8.40625 C 13.265625 -5.269531 12.523438 -2.742188 11.046875 -0.828125 L 10.8125 -0.671875 L 10.71875 -0.671875 C 10.65625 -0.671875 10.582031 -0.804688 10.5 -1.078125 C 10.601562 -1.765625 10.65625 -2.894531 10.65625 -4.46875 L 10.65625 -5.25 C 10.65625 -8.820312 9.835938 -11.140625 8.203125 -12.203125 L 7.65625 -12.28125 L 7.5 -12.28125 C 6.832031 -12.28125 5.9375 -12.039062 4.8125 -11.5625 C 4.40625 -11.5625 4.171875 -9.617188 4.109375 -5.734375 C 4.148438 -2.410156 4.25 -0.75 4.40625 -0.75 C 4.40625 -0.332031 4.175781 -0.125 3.71875 -0.125 C 2.75 -0.976562 1.976562 -2.945312 1.40625 -6.03125 C 1.039062 -7.5625 0.859375 -8.957031 0.859375 -10.21875 L 0.859375 -10.609375 C 1.117188 -14.929688 1.4375 -17.09375 1.8125 -17.09375 C 2.375 -18.195312 2.953125 -18.75 3.546875 -18.75 Z M 3.546875 -18.75" transform="translate(88.718 67.006)"/></g></g></g><g fill="#3A1153"><g><g><path d="M 9.6875 -17.015625 L 10.109375 -17.015625 C 13.703125 -17.015625 15.5 -16.820312 15.5 -16.4375 L 16.0625 -15.5625 L 16.0625 -14.5 C 16.0625 -13.820312 14.988281 -12.664062 12.84375 -11.03125 C 10.5625 -9.226562 7.832031 -6.671875 4.65625 -3.359375 L 4.4375 -3.03125 L 4.796875 -2.96875 C 8.628906 -2.96875 11.820312 -2.347656 14.375 -1.109375 C 14.90625 -0.660156 15.171875 -0.390625 15.171875 -0.296875 C 15.171875 -0.191406 15.117188 -0.140625 15.015625 -0.140625 C 13.441406 -0.566406 11.664062 -0.78125 9.6875 -0.78125 C 9.007812 -0.78125 6.46875 -0.671875 2.0625 -0.453125 C 1.445312 -0.453125 1.050781 -0.832031 0.875 -1.59375 C 0.875 -3.351562 3.722656 -7.0625 9.421875 -12.71875 L 8.984375 -12.8125 C 6.910156 -12.8125 4.882812 -13.296875 2.90625 -14.265625 C 2.34375 -14.617188 2.0625 -14.96875 2.0625 -15.3125 C 2.0625 -16.175781 3.859375 -16.710938 7.453125 -16.921875 C 7.847656 -16.984375 8.59375 -17.015625 9.6875 -17.015625 Z M 9.6875 -17.015625" transform="translate(102.976 67.006)"/></g></g></g></svg>